<svg version="1.1" preserveAspectRatio="none" xmlns="http://www.w3.org/2000/svg" width="500" height="500" viewBox="0 0 500 500"><rect width="100%" height="100%" fill="#00000000" fill-opacity="1"/><svg viewBox="95.7078 133.9962 454.7896 40" width="333" height="29.288268685123846" x="83.5px" y="235.3559px" xmlns="http://www.w3.org/2000/svg" xmlns:xlink="http://www.w3.org/1999/xlink" preserveAspectRatio="none"><defs></defs><style>.companyName {fill:#FFFFFF;fill-opacity:1;}.icon1 {fill:#FFFFFF;fill-opacity:1;}.icon2 {fill:#E35B34;fill-opacity:1;}.icon3 {fill:#E3D454;fill-opacity:1;}.icon3-str {stroke:#E3D454;stroke-opacity:1;}</style><g opacity="1" transform="rotate(0 95.7078 133.9962)">
<svg width="56.7433" height="40" x="95.7078" y="133.9962" version="1.1" preserveAspectRatio="none" viewBox="8.421000480651855 36.0003776550293 181.57798767089844 127.99964904785156">
  <g transform="matrix(1 0 0 1 0 0)"><g><path d="M189.1 90.275c-4.898-35.357-40.178-60.33-75.278-52.99-25.2 5.281-42.3 20.408-49.32 45.113-7.11 25.063-.36 46.993 18.63 64.985 4.05 3.849 9 6.803 13.95 10.352H11.557c-1.287 0-3.136.858-3.136 3.038 0 2.16 1.858 2.901 3.115 2.901.952 0 114.435.326 114.435.326 27.99.031 53.37-18.855 61.38-45.619.63-2.059 1.08-4.207 1.62-6.355.72-3.312 1.028-10.115 1.028-10.115V98.51c.001 0-.217-5.46-.899-8.235zm-62.948 67.401c-31.77 0-58.05-26.227-58.05-57.913.09-31.776 25.74-57.197 57.69-57.197s58.32 25.958 58.41 57.555c.09 31.329-26.37 57.555-58.05 57.555z" data-color="1" class="icon1"></path><path d="M125.792 85.531c-9.81 0-17.19-7.25-17.28-16.917-.09-9.846 7.29-17.365 17.1-17.365s17.37 7.519 17.37 17.186c0 9.487-7.56 17.096-17.19 17.096zm10.89-17.365c.09-5.729-5.13-11.01-10.89-11.01-5.67 0-10.71 5.013-10.8 10.741-.09 5.818 4.68 10.741 10.53 10.92 5.85.179 11.07-4.833 11.16-10.651z" data-color="1" class="icon1"></path><path d="M174.482 100.3c0 9.578-7.47 16.828-17.28 16.738-9.63-.09-17.1-7.519-17.1-17.186s7.65-17.365 17.28-17.365c9.81.09 17.1 7.698 17.1 17.813zm-17.1 10.383c6.12-.09 10.89-5.102 10.8-11.457-.09-5.639-5.13-10.383-10.89-10.294-5.85.09-11.07 5.46-10.98 11.099.18 5.729 5.31 10.652 11.07 10.652z" data-color="1" class="icon1"></path><path d="M108.602 131.539c.09-9.757 7.56-17.096 17.46-17.007 9.63.09 17.1 7.608 17.01 17.186-.09 9.399-7.74 17.097-17.28 17.097-9.81.089-17.28-7.43-17.19-17.276zm6.39-.358c-.09 5.818 5.04 11.01 10.89 11.01 5.58 0 10.8-5.192 10.89-10.741.09-5.818-4.77-10.741-10.62-10.831-6.12-.179-11.16 4.565-11.16 10.562z" data-color="1" class="icon1"></path><path d="M77.102 99.763c0-9.578 7.47-17.096 17.1-17.186s17.37 7.608 17.37 17.276c0 9.488-7.65 17.096-17.19 17.186-9.81.089-17.37-7.43-17.28-17.276zm27.99 0c0-5.818-4.95-10.741-10.71-10.831-5.67 0-11.07 5.371-11.07 11.01.09 5.639 5.22 10.652 10.89 10.741 6.03 0 10.89-4.923 10.89-10.92z" data-color="1" class="icon1"></path><path d="M125.882 88.932c6.12.09 10.8 4.834 10.71 11.01-.09 5.997-5.04 10.92-11.07 10.831-6.12-.09-10.89-4.923-10.8-11.099.27-6.087 5.04-10.742 11.16-10.742zm4.41 11.01c0-2.506-1.98-4.565-4.41-4.655-2.43-.09-4.5 1.969-4.5 4.476s1.98 4.655 4.41 4.655c2.34.089 4.41-2.059 4.5-4.476z" data-color="1" class="icon1"></path><path d="M129.176 99.942c0 1.812-1.619 3.422-3.373 3.422-1.822 0-3.306-1.61-3.306-3.489 0-1.878 1.552-3.422 3.373-3.355 1.822 0 3.306 1.543 3.306 3.422z" data-color="1" class="icon1"></path></g></g>
</svg>
</g><g opacity="1" transform="rotate(0 172.4511 133.9962)">
<svg width="378.0463" height="40" x="172.4511" y="133.9962" version="1.1" preserveAspectRatio="none" viewBox="1.56 -28.48 273.68 28.96">
  <g transform="matrix(1 0 0 1 0 0)" class="companyName"><path id="id-D6z1nYkh10" d="M16.72 0.48Q12.44 0.48 8.98-1.38Q5.52-3.24 3.54-6.54Q1.56-9.84 1.56-14L1.56-14Q1.56-18.16 3.54-21.46Q5.52-24.76 8.98-26.62Q12.44-28.48 16.76-28.48L16.76-28.48Q20.40-28.48 23.34-27.20Q26.28-25.92 28.28-23.52L28.28-23.52L24.12-19.68Q21.28-22.96 17.08-22.96L17.08-22.96Q14.48-22.96 12.44-21.82Q10.40-20.68 9.26-18.64Q8.12-16.60 8.12-14L8.12-14Q8.12-11.40 9.26-9.36Q10.40-7.32 12.44-6.18Q14.48-5.04 17.08-5.04L17.08-5.04Q21.28-5.04 24.12-8.36L24.12-8.36L28.28-4.52Q26.28-2.08 23.32-0.80Q20.36 0.48 16.72 0.48L16.72 0.48Z M32.64 0L32.64-28L39.12-28L39.12 0L32.64 0Z M65.04-28L71.44-28L71.44 0L66.12 0L52.16-17L52.16 0L45.76 0L45.76-28L51.12-28L65.04-11L65.04-28Z M84.52-5.20L99.76-5.20L99.76 0L78.08 0L78.08-28L99.24-28L99.24-22.80L84.52-22.80L84.52-16.72L97.52-16.72L97.52-11.68L84.52-11.68L84.52-5.20Z M136.48 0L130.40 0L130.36-16.80L122.12-2.96L119.20-2.96L111-16.44L111 0L104.92 0L104.92-28L110.28-28L120.76-10.60L131.08-28L136.40-28L136.48 0Z M164.04 0L161.56-6L148.56-6L146.08 0L139.44 0L151.92-28L158.32-28L170.84 0L164.04 0ZM150.64-10.92L159.52-10.92L155.08-21.64L150.64-10.92Z M182.96 0.48Q179.64 0.48 176.54-0.42Q173.44-1.32 171.56-2.76L171.56-2.76L173.76-7.64Q175.56-6.32 178.04-5.52Q180.52-4.72 183-4.72L183-4.72Q185.76-4.72 187.08-5.54Q188.40-6.36 188.40-7.72L188.40-7.72Q188.40-8.72 187.62-9.38Q186.84-10.04 185.62-10.44Q184.40-10.84 182.32-11.32L182.32-11.32Q179.12-12.08 177.08-12.84Q175.04-13.60 173.58-15.28Q172.12-16.96 172.12-19.76L172.12-19.76Q172.12-22.20 173.44-24.18Q174.76-26.16 177.42-27.32Q180.08-28.48 183.92-28.48L183.92-28.48Q186.60-28.48 189.16-27.84Q191.72-27.20 193.64-26L193.64-26L191.64-21.08Q187.76-23.28 183.88-23.28L183.88-23.28Q181.16-23.28 179.86-22.40Q178.56-21.52 178.56-20.08L178.56-20.08Q178.56-18.64 180.06-17.94Q181.56-17.24 184.64-16.56L184.64-16.56Q187.84-15.80 189.88-15.04Q191.92-14.28 193.38-12.64Q194.84-11 194.84-8.20L194.84-8.20Q194.84-5.80 193.50-3.82Q192.16-1.84 189.48-0.68Q186.80 0.48 182.96 0.48L182.96 0.48Z M204.68 0L204.68-22.72L195.72-22.72L195.72-28L220.12-28L220.12-22.72L211.16-22.72L211.16 0L204.68 0Z M230.04-5.20L245.28-5.20L245.28 0L223.60 0L223.60-28L244.76-28L244.76-22.80L230.04-22.80L230.04-16.72L243.04-16.72L243.04-11.68L230.04-11.68L230.04-5.20Z M275.24 0L268.28 0L262.88-7.80L262.56-7.80L256.92-7.80L256.92 0L250.44 0L250.44-28L262.56-28Q266.28-28 269.02-26.76Q271.76-25.52 273.24-23.24Q274.72-20.96 274.72-17.84L274.72-17.84Q274.72-14.72 273.22-12.46Q271.72-10.20 268.96-9L268.96-9L275.24 0ZM268.16-17.84Q268.16-20.20 266.64-21.46Q265.12-22.72 262.20-22.72L262.20-22.72L256.92-22.72L256.92-12.96L262.20-12.96Q265.12-12.96 266.64-14.24Q268.16-15.52 268.16-17.84L268.16-17.84Z"/></g>
</svg>
</g></svg></svg>